<svg width="24" height="24" viewBox="0 0 24 24" fill="none" xmlns="http://www.w3.org/2000/svg">
<path d="M18.3641 18.3641C17.9736 18.7546 17.3404 18.7546 16.9499 18.3641L12.0001 13.4143L7.05037 18.3641C6.65984 18.7546 6.02668 18.7546 5.63616 18.3641C5.24563 17.9736 5.24563 17.3404 5.63616 16.9499L10.5859 12.0001L5.63616 7.05037C5.24563 6.65984 5.24563 6.02668 5.63616 5.63615C6.02668 5.24563 6.65984 5.24563 7.05037 5.63616L12.0001 10.5859L16.9499 5.63615C17.3404 5.24563 17.9736 5.24563 18.3641 5.63615C18.7546 6.02668 18.7546 6.65984 18.3641 7.05037L13.4143 12.0001L18.3641 16.9499C18.7546 17.3404 18.7546 17.9736 18.3641 18.3641Z" fill="#0F0F0F"/>
</svg>
